<svg version="1.1" id="Layer_1" xmlns="http://www.w3.org/2000/svg" xmlns:xlink="http://www.w3.org/1999/xlink" x="0px" y="0px"
	 width="100%" viewBox="0 0 500 500" enable-background="new 0 0 500 500" xml:space="preserve">
<path fill="#FFFFFF" opacity="1.000000" stroke="none" 
	d="
M286.000000,501.000000 
	C190.666687,501.000000 95.833382,501.000000 1.000051,501.000000 
	C1.000034,334.333405 1.000034,167.666794 1.000017,1.000140 
	C167.666565,1.000094 334.333130,1.000094 500.999756,1.000047 
	C500.999847,167.666519 500.999847,334.333038 500.999939,500.999786 
	C429.500000,501.000000 358.000000,501.000000 286.000000,501.000000 
M188.035309,430.494568 
	C203.121948,435.927246 218.691910,439.719910 234.623367,440.716125 
	C256.414825,442.078796 278.090485,440.895996 299.419708,435.040985 
	C342.751801,423.146027 378.201080,399.552521 404.548096,363.317017 
	C435.191864,321.172119 446.769714,273.757782 438.972931,222.146423 
	C431.593384,173.297241 408.192139,133.151749 369.665527,102.404373 
	C325.500092,67.156754 274.685425,54.230095 219.246628,63.486805 
	C163.891632,72.729530 120.690918,102.033775 90.253235,149.321213 
	C65.306549,188.077957 56.372337,230.896973 62.374592,276.264557 
	C68.286240,320.947266 88.092247,359.060425 121.283279,390.012482 
	C140.560471,407.989258 162.451096,421.484802 188.035309,430.494568 
z"/>
<path fill="#8FC9E9" opacity="1.000000" stroke="none" 
	d="
M187.671295,430.348694 
	C162.451096,421.484802 140.560471,407.989258 121.283279,390.012482 
	C88.092247,359.060425 68.286240,320.947266 62.374592,276.264557 
	C56.372337,230.896973 65.306549,188.077957 90.253235,149.321213 
	C120.690918,102.033775 163.891632,72.729530 219.246628,63.486805 
	C274.685425,54.230095 325.500092,67.156754 369.665527,102.404373 
	C408.192139,133.151749 431.593384,173.297241 438.972931,222.146423 
	C446.769714,273.757782 435.191864,321.172119 404.548096,363.317017 
	C378.201080,399.552521 342.751801,423.146027 299.419708,435.040985 
	C278.090485,440.895996 256.414825,442.078796 234.623367,440.716125 
	C218.691910,439.719910 203.121948,435.927246 187.671295,430.348694 
M341.113129,153.411804 
	C327.444885,158.360809 327.437469,161.566589 331.951508,172.744156 
	C339.613525,191.716553 342.733246,211.725235 343.883728,232.067520 
	C344.007416,234.254990 343.900391,236.455521 343.900391,238.649994 
	C343.369873,238.824509 342.839355,238.999008 342.308868,239.173523 
	C332.527771,228.115280 322.629608,217.157700 313.006042,205.964035 
	C306.396454,198.276062 300.352570,190.099472 293.691711,182.458740 
	C290.358246,178.634933 286.150238,175.964569 280.446289,177.728394 
	C272.412262,180.212738 269.066803,185.166122 270.174683,194.562836 
	C271.824768,208.559036 274.050690,222.489105 275.592560,236.495651 
	C276.562408,245.306198 276.729767,254.205078 277.257141,263.064331 
	C273.784302,260.526794 271.251495,257.747772 268.912048,254.814606 
	C257.137756,240.052078 247.373215,224.026321 238.972977,207.135025 
	C234.181152,197.499542 230.488495,196.346497 220.707458,201.118729 
	C219.809570,201.556808 218.908783,201.991714 218.031357,202.468628 
	C210.557877,206.530914 209.016922,210.205795 213.275711,217.406403 
	C224.442230,236.286301 235.577850,255.214371 247.620636,273.535034 
	C254.926270,284.649078 264.144440,294.469574 275.418732,301.908081 
	C285.167084,308.339813 299.434723,302.575470 301.937897,291.176117 
	C303.070892,286.016602 303.890961,280.669189 303.900360,275.405334 
	C303.924408,261.893982 303.415436,248.381729 303.123688,235.060135 
	C303.217316,235.162781 303.662903,235.602402 304.053284,236.086517 
	C315.256744,249.979309 327.191467,263.120026 341.478516,274.000488 
	C353.098572,282.849915 367.313477,274.322083 369.531647,263.818695 
	C370.557892,258.959259 371.565948,254.036514 371.886780,249.097305 
	C373.884216,218.345505 367.995453,188.899811 356.715027,160.399719 
	C353.328003,151.842422 350.703857,150.580231 341.113129,153.411804 
M154.081085,227.522293 
	C148.957138,229.911423 143.607056,231.914307 138.749435,234.758362 
	C120.350517,245.530685 110.516815,261.473053 112.296082,283.061737 
	C113.616615,299.084381 119.593971,313.783173 129.010330,326.855072 
	C139.706009,341.702972 154.399826,348.692932 172.651413,346.760925 
	C186.351776,345.310730 199.120895,340.528778 211.083206,333.621216 
	C219.187241,328.941559 225.819595,322.827362 230.506165,314.679199 
	C236.847778,303.653625 234.879623,297.547089 223.412445,292.680145 
	C217.727585,290.267365 214.175644,291.272491 211.672409,297.092957 
	C207.105621,307.711609 198.645142,313.684387 188.435837,317.705475 
	C172.333038,324.047791 159.786331,321.609222 150.629639,308.715302 
	C146.059265,302.279572 142.951340,294.296661 141.088150,286.554810 
	C137.411041,271.276001 143.257980,259.564056 157.137451,252.660873 
	C169.267380,246.627838 181.770981,244.731201 194.382935,251.719437 
	C197.546158,253.472153 200.898499,254.595551 204.202469,252.120300 
	C209.372406,248.247177 211.860611,242.664322 211.762894,236.529297 
	C211.676025,231.075836 206.466293,229.423553 202.335541,227.331161 
	C202.041153,227.182037 201.703049,227.121689 201.399231,226.988251 
	C185.833252,220.152649 170.310654,221.796173 154.081085,227.522293 
M246.945114,143.671906 
	C246.140732,142.832703 245.373306,141.954071 244.526123,141.160568 
	C238.090881,135.133179 228.010590,134.259659 220.062439,139.020233 
	C213.164062,143.152039 209.348389,152.738663 211.427460,160.715088 
	C213.757828,169.655701 221.620911,175.919312 230.610825,175.996338 
	C247.085236,176.137482 255.813370,159.637558 246.945114,143.671906 
M274.135345,105.447723 
	C267.113770,110.421158 263.887390,117.283730 265.300995,125.698502 
	C266.689453,133.963623 271.949219,139.674759 280.029785,141.602844 
	C287.942108,143.490814 295.202972,141.429001 300.642700,134.807892 
	C306.560852,127.604477 306.556274,117.184647 300.615265,109.458549 
	C295.163849,102.369164 284.319031,100.529480 274.135345,105.447723 
z"/>
<path fill="#FEFFFF" opacity="1.000000" stroke="none" 
	d="
M341.491272,153.274170 
	C350.703857,150.580231 353.328003,151.842422 356.715027,160.399719 
	C367.995453,188.899811 373.884216,218.345505 371.886780,249.097305 
	C371.565948,254.036514 370.557892,258.959259 369.531647,263.818695 
	C367.313477,274.322083 353.098572,282.849915 341.478516,274.000488 
	C327.191467,263.120026 315.256744,249.979309 304.053284,236.086517 
	C303.662903,235.602402 303.217316,235.162781 303.123688,235.060135 
	C303.415436,248.381729 303.924408,261.893982 303.900360,275.405334 
	C303.890961,280.669189 303.070892,286.016602 301.937897,291.176117 
	C299.434723,302.575470 285.167084,308.339813 275.418732,301.908081 
	C264.144440,294.469574 254.926270,284.649078 247.620636,273.535034 
	C235.577850,255.214371 224.442230,236.286301 213.275711,217.406403 
	C209.016922,210.205795 210.557877,206.530914 218.031357,202.468628 
	C218.908783,201.991714 219.809570,201.556808 220.707458,201.118729 
	C230.488495,196.346497 234.181152,197.499542 238.972977,207.135025 
	C247.373215,224.026321 257.137756,240.052078 268.912048,254.814606 
	C271.251495,257.747772 273.784302,260.526794 277.257141,263.064331 
	C276.729767,254.205078 276.562408,245.306198 275.592560,236.495651 
	C274.050690,222.489105 271.824768,208.559036 270.174683,194.562836 
	C269.066803,185.166122 272.412262,180.212738 280.446289,177.728394 
	C286.150238,175.964569 290.358246,178.634933 293.691711,182.458740 
	C300.352570,190.099472 306.396454,198.276062 313.006042,205.964035 
	C322.629608,217.157700 332.527771,228.115280 342.308868,239.173523 
	C342.839355,238.999008 343.369873,238.824509 343.900391,238.649994 
	C343.900391,236.455521 344.007416,234.254990 343.883728,232.067520 
	C342.733246,211.725235 339.613525,191.716553 331.951508,172.744156 
	C327.437469,161.566589 327.444885,158.360809 341.491272,153.274170 
z"/>
<path fill="#FEFEFF" opacity="1.000000" stroke="none" 
	d="
M154.443817,227.371613 
	C170.310654,221.796173 185.833252,220.152649 201.399231,226.988251 
	C201.703049,227.121689 202.041153,227.182037 202.335541,227.331161 
	C206.466293,229.423553 211.676025,231.075836 211.762894,236.529297 
	C211.860611,242.664322 209.372406,248.247177 204.202469,252.120300 
	C200.898499,254.595551 197.546158,253.472153 194.382935,251.719437 
	C181.770981,244.731201 169.267380,246.627838 157.137451,252.660873 
	C143.257980,259.564056 137.411041,271.276001 141.088150,286.554810 
	C142.951340,294.296661 146.059265,302.279572 150.629639,308.715302 
	C159.786331,321.609222 172.333038,324.047791 188.435837,317.705475 
	C198.645142,313.684387 207.105621,307.711609 211.672409,297.092957 
	C214.175644,291.272491 217.727585,290.267365 223.412445,292.680145 
	C234.879623,297.547089 236.847778,303.653625 230.506165,314.679199 
	C225.819595,322.827362 219.187241,328.941559 211.083206,333.621216 
	C199.120895,340.528778 186.351776,345.310730 172.651413,346.760925 
	C154.399826,348.692932 139.706009,341.702972 129.010330,326.855072 
	C119.593971,313.783173 113.616615,299.084381 112.296082,283.061737 
	C110.516815,261.473053 120.350517,245.530685 138.749435,234.758362 
	C143.607056,231.914307 148.957138,229.911423 154.443817,227.371613 
z"/>
<path fill="#FDFEFF" opacity="1.000000" stroke="none" 
	d="
M247.174866,143.960358 
	C255.813370,159.637558 247.085236,176.137482 230.610825,175.996338 
	C221.620911,175.919312 213.757828,169.655701 211.427460,160.715088 
	C209.348389,152.738663 213.164062,143.152039 220.062439,139.020233 
	C228.010590,134.259659 238.090881,135.133179 244.526123,141.160568 
	C245.373306,141.954071 246.140732,142.832703 247.174866,143.960358 
z"/>
<path fill="#FEFEFF" opacity="1.000000" stroke="none" 
	d="
M274.468567,105.263702 
	C284.319031,100.529480 295.163849,102.369164 300.615265,109.458549 
	C306.556274,117.184647 306.560852,127.604477 300.642700,134.807892 
	C295.202972,141.429001 287.942108,143.490814 280.029785,141.602844 
	C271.949219,139.674759 266.689453,133.963623 265.300995,125.698502 
	C263.887390,117.283730 267.113770,110.421158 274.468567,105.263702 
z"/>
</svg>